<svg width="20" height="12" viewBox="0 0 20 12" fill="none" xmlns="http://www.w3.org/2000/svg">
<g clip-path="url(#clip0_66_121)">
<path d="M2.46927 6.0155L6.52702 10.073C6.66536 10.2115 6.73619 10.3856 6.73952 10.5953C6.74269 10.8048 6.67186 10.982 6.52702 11.127C6.38202 11.2718 6.20636 11.3443 6.00002 11.3443C5.79369 11.3443 5.61802 11.2718 5.47302 11.127L0.978773 6.63275C0.885273 6.53909 0.819273 6.44034 0.780773 6.3365C0.742273 6.23267 0.723022 6.1205 0.723022 6C0.723022 5.8795 0.742273 5.76734 0.780773 5.6635C0.819273 5.55967 0.885273 5.46092 0.978773 5.36725L5.47302 0.873002C5.62186 0.724335 5.79852 0.648419 6.00302 0.645252C6.20736 0.642085 6.38711 0.718002 6.54227 0.873002C6.69744 1.02817 6.77502 1.20642 6.77502 1.40775C6.77502 1.60892 6.69744 1.78709 6.54227 1.94225L2.46927 6.0155ZM17.5308 5.9845L13.473 1.927C13.3347 1.7885 13.2639 1.61442 13.2605 1.40475C13.2574 1.19525 13.3282 1.018 13.473 0.873002C13.618 0.728168 13.7937 0.655752 14 0.655752C14.2064 0.655752 14.382 0.728168 14.527 0.873002L19.0213 5.36725C19.1148 5.46092 19.1808 5.55967 19.2193 5.6635C19.2578 5.76734 19.277 5.8795 19.277 6C19.277 6.1205 19.2578 6.23267 19.2193 6.3365C19.1808 6.44034 19.1148 6.53909 19.0213 6.63275L14.527 11.127C14.3782 11.2757 14.2041 11.349 14.0048 11.347C13.8054 11.3452 13.6282 11.2667 13.473 11.1115C13.318 10.9563 13.2405 10.7782 13.2405 10.577C13.2405 10.3757 13.318 10.1974 13.473 10.0423L17.5308 5.9845Z" fill="white"/>
</g>
<defs>
<clipPath id="clip0_66_121">
<rect width="20" height="12" fill="white"/>
</clipPath>
</defs>
</svg>
