<svg width="32" height="32" viewBox="0 0 32 32" fill="none" xmlns="http://www.w3.org/2000/svg">
<path d="M25.5961 15.4372C20.1854 8.18759 11.8146 8.18759 6.40393 15.4372C6.15539 15.7702 6.15539 16.2298 6.40393 16.5628C11.8146 23.8124 20.1854 23.8124 25.5961 16.5628C25.8446 16.2298 25.8446 15.7702 25.5961 15.4372Z" stroke="white" stroke-width="2"/>
<path d="M6 22V25C6 25.5523 6.44772 26 7 26H10" stroke="white" stroke-width="2"/>
<path d="M6 10V7C6 6.44772 6.44772 6 7 6H10" stroke="white" stroke-width="2"/>
<path d="M26 22V25C26 25.5523 25.5523 26 25 26H22" stroke="white" stroke-width="2"/>
<path d="M26 10V7C26 6.44772 25.5523 6 25 6H22" stroke="white" stroke-width="2"/>
<path d="M19.4996 17.9372C19.07 18.7132 18.3948 19.3244 17.5799 19.6748C16.7651 20.0251 15.8569 20.0947 14.9982 19.8725C14.1396 19.6504 13.379 19.1492 12.8363 18.4477C12.2936 17.7462 11.9994 16.8841 12 15.9972C12.0006 15.1102 12.296 14.2487 12.8397 13.5479C13.3835 12.8472 14.1447 12.347 15.0037 12.1261C15.8627 11.9051 16.7707 11.976 17.5851 12.3275C18.3994 12.6789 19.0738 13.2911 19.5023 14.0677L16 16L19.4996 17.9372Z" fill="white"/>
</svg>
