<svg width="32" height="32" viewBox="0 0 32 32" fill="none" xmlns="http://www.w3.org/2000/svg">
<path d="M16.6523 6L16.8789 7.3584L16.9912 8.03223L17.6592 8.17285C18.6357 8.37871 19.5467 8.76428 20.3584 9.29297L20.9297 9.66504L21.4854 9.26953L22.6094 8.4668L23.5322 9.38965L22.7305 10.5137L22.334 11.0684L22.7061 11.6406C23.2348 12.4521 23.6201 13.363 23.8262 14.3398L23.9668 15.0078L26 15.3467V16.6523L23.9668 16.9912L23.8262 17.6592C23.6203 18.6359 23.2348 19.5467 22.7061 20.3584L22.334 20.9297L22.7305 21.4854L23.5322 22.6094L22.6094 23.5322L21.4854 22.7305L20.9297 22.334L20.3584 22.7061C19.5467 23.2348 18.6359 23.6203 17.6592 23.8262L16.9912 23.9668L16.6523 26H15.3467L15.0078 23.9668L14.3398 23.8262L13.9766 23.7402C13.1368 23.5212 12.3506 23.1686 11.6406 22.7061L11.0684 22.334L10.5137 22.7305L9.38965 23.5322L8.4668 22.6094L9.26953 21.4854L9.66504 20.9297L9.29297 20.3584C8.76428 19.5467 8.37871 18.6357 8.17285 17.6592L8.03223 16.9912L7.3584 16.8789L6 16.6523V15.3467L7.35938 15.1201L8.03223 15.0078L8.17285 14.3398C8.37885 13.3632 8.76433 12.4521 9.29297 11.6406L9.66504 11.0693L9.26855 10.5137L8.4668 9.38965L9.38965 8.4668L10.5137 9.26855L11.0693 9.66504L11.6406 9.29297C12.4521 8.76433 13.3632 8.37885 14.3398 8.17285L15.0078 8.03223L15.1201 7.35938L15.3467 6H16.6523Z" stroke="white" stroke-width="2"/>
<circle cx="16" cy="16" r="7.5" stroke="white"/>
<circle cx="16" cy="16" r="7.5" stroke="white"/>
</svg>
