<svg width="32" height="32" viewBox="0 0 32 32" fill="none" xmlns="http://www.w3.org/2000/svg">
<path d="M8 6H22.1387C22.6435 6 23.1268 6.19069 23.4941 6.5293L23.6436 6.68262L25.5049 8.81055C25.8238 9.17506 25.9999 9.64262 26 10.127V24C26 25.1046 25.1046 26 24 26H8C6.89543 26 6 25.1046 6 24V8C6 6.89543 6.89543 6 8 6Z" stroke="white" stroke-width="2"/>
<path d="M12 18H19.9521C20.9828 18 21.8322 18.7799 21.9404 19.7832L21.9521 19.9863L21.9932 26H10V20C10 18.8954 10.8954 18 12 18Z" stroke="white" stroke-width="2"/>
</svg>
